<?xml version="1.0" encoding="UTF-8"?>
<svg width="18px" height="18px" viewBox="0 0 18 18" version="1.1" xmlns="http://www.w3.org/2000/svg" xmlns:xlink="http://www.w3.org/1999/xlink">
    <g stroke="none" stroke-width="1" fill="none" fill-rule="evenodd">
        <path d="M9,0 C4.02943725,0 0,4.02943725 0,9 C0,12.9742622 2.52644175,16.2920587 6.0375,17.5125 C6.4875,17.5875 6.675,17.325 6.675,17.1 C6.675,16.9125 6.6625,16.3125 6.6625,15.5625 C4.2,16.125 3.675,14.625 3.675,14.625 C3.3,13.6875 2.7375,13.425 2.7375,13.425 C2.025,12.9375 2.8125,12.9375 2.8125,12.9375 C3.6375,13 4.0875,13.7625 4.0875,13.7625 C4.7875,15.0375 5.9625,14.7 6.675,14.475 C6.75,13.9125 6.975,13.5375 7.2375,13.3125 C5.2875,13.0875 3.225,12.3375 3.225,8.8125 C3.225,7.8 3.5625,6.9375 4.0875,6.2625 C3.975,6.0375 3.675,5.1 4.1625,3.825 C4.1625,3.825 4.9125,3.6 6.675,4.8 C7.3875,4.6125 8.1375,4.5 8.8875,4.5 C9.6375,4.5 10.3875,4.6125 11.1,4.8 C12.8625,3.5875 13.6125,3.825 13.6125,3.825 C14.1,5.1 13.8,6.0375 13.6875,6.2625 C14.2125,6.9375 14.55,7.7875 14.55,8.8125 C14.55,12.35 12.4875,13.0875 10.5375,13.3125 C10.875,13.6125 11.1375,14.2125 11.1375,15.1125 C11.1375,16.4625 11.125,17.5875 11.125,17.1 C11.125,17.325 11.3125,17.5875 11.7625,17.5125 C15.2735582,16.2920587 17.8,12.9742622 17.8,9 C17.8,4.02943725 13.7705627,0 9,0 Z" fill="#FFFFFF"></path>
    </g>
</svg> 